HIERARCHY
ROOT Hips
{
  OFFSET 0.0 0.0 0.0
  CHANNELS 6 XPOSITION YPOSITION ZPOSITION ZROTATION XROTATION YROTATION 
  JOINT LeftUpLeg
  {
    OFFSET 0.089458 -0.0866707 0.00101652
    CHANNELS 3 ZROTATION XROTATION YROTATION 
    JOINT LeftLeg
    {
      OFFSET 0.0 -0.444227 0.013727
      CHANNELS 3 ZROTATION XROTATION YROTATION 
      JOINT LeftFoot
      {
        OFFSET -0.00253549 -0.420924 -0.0146059
        CHANNELS 3 ZROTATION XROTATION YROTATION 
        End Site
        {
          OFFSET -0.0004 -0.0441509 0.084991
        }
      }
    }
  }
  JOINT Spine
  {
    OFFSET 0.0 0.118905 0.0
    CHANNELS 3 ZROTATION XROTATION YROTATION 
    JOINT Spine1
    {
      OFFSET 0.0 0.256574 0.00127663
      CHANNELS 3 ZROTATION XROTATION YROTATION 
      End Site
      {
        OFFSET -0.0029 0.2150836 0.02525291
      }
      JOINT RightArm
      {
        OFFSET -0.162727 -0.05365632 0.00102123
        CHANNELS 3 ZROTATION XROTATION YROTATION 
        JOINT RightForeArm
        {
          OFFSET -0.26364 0.00099144 -0.0142434
          CHANNELS 3 ZROTATION XROTATION YROTATION 
          End Site
          {
            OFFSET -0.220324 0.00085362 0.0102216
          }
        }
      }
      JOINT LeftArm
      {
        OFFSET 0.162727 -0.0536563199 0.00102123
        CHANNELS 3 ZROTATION XROTATION YROTATION 
        JOINT LeftForeArm
        {
          OFFSET 0.262597 0.00099144 -0.0142434
          CHANNELS 3 ZROTATION XROTATION YROTATION 
          End Site
          {
            OFFSET 0.220902 0.00085362 0.0102216
          }
        }
      }
    }
  }
  JOINT RightUpLeg
  {
    OFFSET -0.089458 -0.0866707 0.00101652
    CHANNELS 3 ZROTATION XROTATION YROTATION 
    JOINT RightLeg
    {
      OFFSET 0.0 -0.444227 0.013727
      CHANNELS 3 ZROTATION XROTATION YROTATION 
      JOINT RightFoot
      {
        OFFSET 0.00253549 -0.420924 -0.0146059
        CHANNELS 3 ZROTATION XROTATION YROTATION 
        End Site
        {
          OFFSET 0.0004 -0.0441509 0.084991
        }
      }
    }
  }
}
MOTION
Frames: 8
Frame Time: 0.033333
1.43377603391 0.240959055961 0.896309281651 -109.476737715 35.9596482442 -33.0043688243 -1.81796135586 19.714881709 2.98095687575 2.38141290224 30.4715741706 16.5328314709 -16.4715561364 -49.785600615 -3.13832251323 1.58527015105 13.1827833387 -3.98517675097 6.11767365419 0.288657508064 -4.90229997488 68.4329562001 -29.3024301998 -10.615857376 12.4882615294 47.32641491 -5.04667181781 -59.6867896849 13.9882795004 -36.8589587616 -3.64169251402 26.7514023561 -20.1784381103 -0.206105480537 -24.2808699994 -7.16705068478 0.0107350480056 21.609277364 -20.1643269394 6.30719902394 -30.5584712523 -0.239272305518 
1.43775461797 0.145897039817 0.934391018794 -119.306698157 34.101768488 -25.3064433938 0.87569311068 17.9765029426 3.45208347446 3.05065511424 38.8971213609 16.3941581402 -16.6325112517 -44.509959085 -2.1103320856 5.54759490333 12.918922032 -3.83688864833 4.51425729134 0.648374543345 -3.88635159764 71.6670849231 -28.4824011031 -3.71766171995 13.8123824925 48.1977421424 -6.70996716845 -67.7723129828 8.02550727948 -30.788781816 -5.3499403278 34.5860357304 -15.5911293844 1.95926580351 -23.7448487061 -9.14671783646 -0.957066383626 25.3199313099 -17.3471078408 4.00994002869 -30.1463171472 -0.213924459652 
1.43567692437 0.116397856949 0.952066816197 -123.663115753 32.9096272703 -25.410851373 3.67311607996 14.6887077158 4.35587288845 4.37699055271 48.955196461 16.9362907452 -13.2957708893 -35.7874250243 -1.33474585593 8.66085147608 13.105587687 -3.49226953277 3.70543824266 0.81128085163 -3.00719803565 74.3958547795 -26.8521561841 3.73914736065 15.4784073574 48.4604653688 -8.19617321628 -74.9221754966 -0.51982008452 -24.4955701657 -7.69079385921 42.5569723597 -10.1895109916 4.28898356525 -22.3537526156 -10.1599029753 -1.84769594408 28.5539097687 -15.8299776846 2.26121096436 -32.0624345113 -0.13691280944 
1.42956812872 0.135212186243 0.956616437425 -124.884162332 33.218177651 -28.1695545335 6.13058527305 10.2400458537 4.61346322772 5.97988611363 59.0528251865 18.0318343051 -9.74850958253 -27.1606280176 -2.3117582062 11.0435817511 13.5668337767 -3.12306237652 3.42844504351 0.707517684976 -2.23759217021 76.2170017783 -24.7128436059 10.9394845455 16.7689459879 47.8824640254 -8.49977000224 -79.5045084296 -9.03785657392 -18.6773896345 -11.0524644121 49.4961611036 -4.06775587247 6.30037822628 -20.3858641252 -11.0059226493 -2.57959809809 31.0415876078 -15.4605771486 1.34831381327 -34.6858145489 -0.0523340800243 
1.42089259013 0.15944724139 0.957960251811 -124.722573716 34.2655564243 -32.5913165493 7.69898240225 5.30155740216 4.47644237589 7.68114280191 67.801566683 18.0210716345 -8.20012618826 -22.6942068099 -3.75712868741 13.122794641 13.9528128893 -2.71877857035 2.71371590607 0.542723469715 -1.33543965374 77.4460328477 -22.678813271 17.6759951097 16.9265696785 46.4082940515 -7.188496625 -80.9569481566 -14.5830224912 -13.1435558548 -15.077668206 54.6553069271 1.91792672389 7.77295164341 -17.9355030246 -11.9004204447 -3.20231263458 32.4917870327 -14.9952961246 1.34437162018 -36.8928535754 0.00714776628599 
1.41006227076 0.176550647043 0.959760588186 -123.500570912 35.732500058 -39.0568726554 8.25216625332 0.294904169627 4.51437297767 9.89928430091 74.4342950842 16.066992079 -8.34359516555 -22.5095970419 -4.85664827113 14.9013554103 14.1320481522 -2.17171478222 1.32447677323 0.373056127925 -0.224361735755 78.3247981561 -21.001774726 23.8958471132 16.1297017533 44.1868057598 -4.67861810976 -80.2129561409 -16.7064651249 -7.41123165516 -19.0643369264 58.8612452105 6.65035156983 8.67183954291 -14.9736461325 -12.4630231266 -3.51925134131 32.8430704919 -14.2478659624 1.75360677989 -38.7829718244 0.0664702737545 
1.39837493639 0.184228879348 0.962429309055 -121.336548416 37.4263289156 -46.9684993371 8.08559074607 -4.76738068689 4.61353323716 13.042793489 78.6296909705 12.3404442829 -8.91929473521 -24.0042166021 -5.55744531677 16.3202503708 14.1204095099 -1.53787312052 -0.367404146387 0.153662194193 0.970908295588 78.9066756319 -19.5714733497 29.5306234049 14.9031927312 41.489615283 -1.56953894473 -78.5125395659 -16.0724476926 -1.44649991702 -21.7806621782 61.9694798866 9.01162523242 9.03942495611 -11.7482737121 -12.5653829029 -3.27647696302 32.3932649691 -13.8581891561 2.04665700673 -40.5608529899 0.123473491773 
1.38676284782 0.183013671416 0.965204720664 -118.292387745 39.1099022441 -55.8427489747 7.48266262727 -9.75181112522 4.50544293222 16.3987053387 80.308353393 8.43030185574 -8.93084885397 -25.5032382193 -5.96873753736 17.3761173617 14.0510429624 -0.918770366724 -2.08150548565 -0.218697214417 2.09793166371 78.696865881 -17.7329964534 34.3663187901 13.4736281615 38.126874098 2.0401121914 -76.8109891795 -14.063936652 4.45837524487 -21.9258310188 63.163123746 8.2966896952 8.98015940468 -8.39392341445 -12.0755524714 -2.35252034828 31.29332789 -14.3131301275 2.18651494838 -41.9726872423 0.178746824312 
